<?xml version="1.0" encoding="UTF-8"?>
<svg id="FINAL" xmlns="http://www.w3.org/2000/svg" viewBox="0 0 3317.6 1481.6">
  <defs>
    <style>
      .cls-1 {
        font-size: 32px;
      }

      .cls-1, .cls-2, .cls-3 {
        fill: #005baa;
      }

      .cls-1, .cls-2, .cls-4 {
        font-family: CoHeadline-Regular, 'Co Headline';
      }

      .cls-5 {
        fill: #57c6d0;
      }

      .cls-6 {
        fill: #a6ce39;
      }

      .cls-2 {
        font-size: 180px;
      }

      .cls-7 {
        fill: #8ed8f8;
      }

      .cls-8 {
        fill: #c657a0;
      }

      .cls-9 {
        fill: #a3238e;
      }

      .cls-10 {
        fill: #00aeef;
      }

      .cls-11 {
        fill: #f58345;
      }

      .cls-4 {
        fill: #fff;
        font-size: 40px;
        letter-spacing: .1em;
      }

      .cls-12 {
        fill: #fcd3c1;
      }

      .cls-13 {
        fill: #f6aecd;
      }
    </style>
  </defs>
  <g>
    <path class="cls-13" d="M674.43,314.05c2.63.74,5.18,1.61,7.41,3.31,4.21,3.2,6.54,7.52,7.65,12.58.36,1.62.48,3.29.61,4.96.13,1.73-.55,3.05-1.58,4.31-1.09,1.33-2.18,2.67-2.94,4.22-.63,1.29-.15,2.01,1.28,1.88,1.63-.15,3.13-.62,4.49-1.66,3.69-2.82,7.45-5.55,11.19-8.29.36-.27.69-.64,1.2-.66,3.26,4.3,6.52,8.59,9.78,12.89-1.76,1.57-3.46,3.23-5.3,4.7-4.9,3.91-9.9,7.68-14.65,11.78-.73.63-1.04,1.3-1.03,2.28.05,4.61.04,9.22,0,13.83,0,.99.1,1.95.36,2.89.87,3.17,1.75,6.35,2.64,9.52,3.96,14.25,7.92,28.51,11.92,42.75.28,1.01-.07,1.15-.89,1.07-1.98-.19-3.97-.37-5.95-.56-4.89-.46-9.77-.99-14.67-1.31-1.27-.08-1.5-.67-1.74-1.62-2.89-11.65-5.81-23.3-8.67-34.96-.31-1.24-1.06-1.44-2.11-1.5-1.06-.06-1.73.05-2.12,1.32-2.34,7.63-4.79,15.23-7.22,22.84-1.55,4.87-3.14,9.72-4.67,14.59-.25.78-.48,1.1-1.42.98-2.29-.31-4.61-.43-6.92-.62-3.79-.3-7.58-.59-11.37-.91-.94-.08-1.48-.31-1.13-1.58,2.02-7.3,4.58-14.42,6.95-21.6,3.22-9.78,6.84-19.45,8.92-29.57.74-3.59,1.53-7.18,1.26-10.88-.25-3.37-1.17-6.41-3.7-8.9-4.38-4.33-9.16-8.15-14.14-11.74-3.05-2.19-6.01-4.52-9.2-6.5-.43-.35-.85-.72-1.29-1.05-3.15-2.38-6.25-4.81-9.12-7.53,3.61-3.87,7.37-7.6,11.26-11.19.52-.48.81-.13,1.16.2,3.38,3.11,6.77,6.21,10.14,9.34,4.16,3.85,8.3,7.71,12.45,11.57,1.24,1.15,2.63,2.04,4.3,2.45,1.3.31,2.49.3,3.43-.83.93-1.12,1.07-2.28.28-3.58-.59-.98-1.34-1.76-2.26-2.42-1.83-1.3-2.89-3.01-2.72-5.31.23-3.23.45-6.47,1.46-9.59,1.21-3.75,3.15-6.99,6.4-9.39,1.69-1.24,3.65-1.75,5.51-2.51h4.75Z"/>
    <path class="cls-12" d="M536.43,398.14c1.81-3.18,2.25-6.46,1.6-10.15-.8-4.56-.66-9.23-.28-13.87.23-2.82.44-5.62,1.18-8.37.33-1.23.83-2.38,1.48-3.44.99-1.61,2.48-1.75,3.79-.41,1.77,1.82,2.35,4.17,2.82,6.54.8,3.96,1.13,7.97,1.13,12.01,0,1.44.42,2.85.28,4.3-.04.37-.02.83.4.96.55.18.68-.36.87-.71,1.73-3.18,2.61-6.64,3.19-10.17.7-4.23,1.26-8.49,1.88-12.73,1.27,2.1,2.95,3.86,4.57,5.67-.21,1.93-.75,3.8-1.09,5.7-1.16,6.44-2.5,12.85-3.22,19.37-.43,3.9-.8,7.8-.98,11.72-.07,1.59-.49,3.09-.94,4.59-1.56-.91-3.13-1.8-4.94-2.2-.83-.18-1.28-.1-1.5.84-.32,1.36-.64,2.71-.73,4.11-.35,5.72,1.01,11.15,2.86,16.5.45,1.3.93,2.59,1.46,4.06-2.2-1.19-3.77-2.55-3.74-5.07,0-.41-.1-.83-.18-1.24-1.66-8.94-3.33-17.88-4.99-26.82-.33-1.79-.64-3.59-1.02-5.73-.93,1.3-1.58,2.38-2.39,3.31-.91,1.05-1.01,2.13-.79,3.46.78,4.81,1.44,9.64,2.15,14.47-1.05-1.65-.84-3.6-1.18-5.4-.65-3.47-1.14-6.96-1.7-10.45,0-.28,0-.56,0-.84Z"/>
    <path class="cls-10" d="M764.17,460.13c-3.17,4.82-6.56,9.48-10.06,14.06-4.18,5.48-8.62,10.74-13.68,15.45-.3.28-.62.54-.63,1.03-.17,6.18-.96,12.41.36,18.51.98,4.52,2.62,8.9,4.02,13.32,3.35,10.58,6.71,21.15,10.11,31.71.35,1.1.19,1.47-1,1.63-6.67.93-13.33,1.92-19.99,2.92-.9.13-1.29-.17-1.62-1-2.68-6.81-4.3-13.92-6.13-20.97-.91-3.5-1.82-7.01-3.03-10.43-.12-.35-.22-.72-.4-1.04-.48-.89-1.08-1.73-2.21-1.64-1.1.08-1.63.93-2,1.9-5.34,14.01-11.38,27.75-16.8,41.73-.19.49-.39.87-1.02.98-6.55,1.09-13.1,2.21-19.64,3.32-.08.01-.18-.03-.43-.08.98-2.55,1.94-5.08,2.92-7.61,5.79-14.94,11.59-29.87,17.03-44.93.93-2.57.84-5.31,1.22-7.96.46-3.18.41-6.4.33-9.62-.02-.71-.21-1.2-.83-1.62-10.19-7.02-19.36-15.25-28.33-23.73-.32-.3-.55-.78-1.09-.79-.54-.57-1.06-1.16-1.62-1.7-3.51-3.37-7.03-6.73-10.54-10.09,3.89-3.46,7.8-6.91,11.67-10.4.61-.55,1-.58,1.61,0,1.95,1.87,3.98,3.65,5.93,5.51,7.43,7.04,14.69,14.27,22.19,21.24,1.85,1.72,3.93,2.09,6.25,2.08.77,0,1.46-.26,2.06-.74,1.29-1.02,1.38-1.86.33-3.12-1.94-2.34-3.6-4.86-4.7-7.71-2.55-6.56-1.6-12.58,3.29-17.68,5.68-5.92,12.78-8.54,20.93-7.84,5.1.44,9.62,3.27,10.46,9.44.28,2.02.06,3.99-.32,5.95-.73,3.68-2.23,7.07-3.91,10.4-.38.76-.9,1.69.07,2.38.9.64,1.71.03,2.37-.55.99-.85,1.91-1.77,2.83-2.69,5.41-5.45,10.5-11.2,15.64-16.89,2.79,2.42,5.58,4.84,8.38,7.26Z"/>
    <path class="cls-11" d="M659.1,463.48c3.52,3.36,7.04,6.72,10.54,10.09.56.54,1.08,1.13,1.62,1.7.36.7-.28.89-.63,1.19-6.73,5.66-13.47,11.31-20.19,16.98-1.39,1.17-2.69,2.43-4.07,3.61-.63.54-.76,1.19-.76,1.98,0,7.61,1.49,14.93,3.81,22.15,4.07,12.64,8.83,25.04,13.15,37.6,1.71,4.96,3.38,9.93,4.86,15.11-1.51-.05-2.83-.61-4.18-.98-6.05-1.65-12.07-3.41-18.12-5.05-.98-.27-1.44-.73-1.75-1.66-4.35-12.94-8.73-25.87-13.11-38.79-.25-.75-.53-1.49-.89-2.19-.71-1.36-1.42-1.38-2.4-.16-.45.56-.63,1.23-.85,1.89-3.43,10.5-6.88,21-10.26,31.53-.31.97-.64,1.1-1.54.82-5.99-1.86-11.99-3.68-17.98-5.52-.49-.15-1.1-.11-.77-1.04,3.96-11.13,6.53-22.66,9.63-34.03.6-2.19,1.15-4.41,1.95-6.54.94-2.5,1.16-5.02,1.09-7.65-.14-4.93-.14-9.86-.2-14.8,0-.61-.07-1.15-.48-1.69-7.42-9.85-14.04-20.25-21.12-30.34-.72-1.03-1.46-2.04-2.19-3.05-3.1-4.53-6.21-9.05-9.31-13.58.69-.86,1.38-1.72,2.07-2.58,1.56-1.72,3.17-3.4,4.67-5.16.67-.78.96-.8,1.55.09,2.4,3.59,4.88,7.12,7.33,10.68,3.24,4.81,6.45,9.64,9.75,14.41,2.48,3.59,4.82,7.26,7.48,10.73,1.37,1.79,2.79,1.96,4.63,1.21.17.02.31,0,.29-.22-.7-1.58-1.83-2.89-2.8-4.29-2.88-4.2-4.43-8.77-3.93-13.91.15-1.52.23-3.1,1.04-4.44,2.29-3.76,5.46-6.28,9.99-6.78.12-.02.23-.04.35-.05,1.06.09,2.15.05,3.17.31,9.6,2.4,15.9,8.62,19.76,17.49,1.14,2.61,1.08,5.32-.32,7.94-.54,1.02-.91,2.13-1.29,3.22-.5,1.42-1.14,2.76-2.29,3.77-.7.61-.39.94.18,1.38,2.05,1.56,4.57,1.58,6.72.08,5.34-3.7,10.37-7.84,15.8-11.43Z"/>
    <path class="cls-7" d="M713.52,347.59c-3.26-4.3-6.52-8.59-9.78-12.89,2.36-2.63,4.95-5.04,7.49-7.48.87-.84,1.78-1.64,2.62-2.5.56-.58.9-.77,1.45.09,4.15,6.44,8.35,12.85,12.53,19.27,2.59,3.97,5.08,8,7.81,11.87,1.17,1.65,3.01,2.73,4.82,3.69.4.21.82.29,1.13-.13.43-.6.55-1.27.22-1.97-1.02-2.14-1.76-4.4-2.47-6.65-1.04-3.33-1.85-6.73-1.73-10.23.1-3.04.76-5.98,2.99-8.31,2.55-2.66,5.79-3.17,9.14-2.5,8.06,1.62,14.18,8.63,15.25,16.83.6,4.6-.2,8.93-1.71,13.23-.53,1.5-1.33,3.29.09,4.57,1.23,1.12,2.64-.13,3.84-.64,3.15-1.34,5.74-3.56,8.32-5.77.35-.3.63-.7,1.14-.75,2.33,5.24,4.5,10.54,6.59,15.87-1.07.81-2.14,1.62-3.21,2.44-4.57,3.49-8.63,7.62-13.46,10.78-.47.31-.52.71-.54,1.19-.23,3.7-.25,7.4-.08,11.12.26,5.94.95,11.82,1.84,17.68,1.17,7.68,2.69,15.31,3.99,22.97.21,1.24.77,2.47.46,3.78-1.95-1.64-3.91-3.25-5.83-4.93-.65-.57-.95-.57-1.44.2-1.73,2.73-3.55,5.41-5.34,8.11-.09-.16-.25-.31-.26-.47-.44-4.1-1.04-8.17-1.71-12.23-1.26-7.6-2.97-15.09-5.24-22.45-.37-1.21-1.26-1.8-2.31-1.95-1.08-.16-1.7.67-2.14,1.64-2.81,6.12-5.21,12.41-7.34,18.8-1.32,3.96-2.54,7.95-3.5,12.02-.15.63-.18,1.41-1.31,1.1-4.52-1.22-9.06-2.37-13.59-3.53-.62-.16-.95-.44-.83-1.18,1.23-7.9,3.32-15.59,5.87-23.15,2.24-6.64,4.58-13.25,6.9-19.86,1.75-4.99,2.69-10.1,2.26-15.41-.14-1.73-.53-3.3-1.63-4.77-4.39-5.87-8.87-11.68-13.38-17.46-2.62-3.36-5.28-6.69-7.92-10.03Z"/>
    <path class="cls-6" d="M574.94,441.06c3.1,4.53,6.21,9.05,9.31,13.58-3.76,4.07-7.53,8.12-11.27,12.21-.81.89-1.52,1.83-2.67,2.35-.79.35-.77,1.18-.86,1.93-.51,4.02.53,7.82,1.47,11.66,4.72,19.16,9.4,38.33,14.09,57.49.54,2.2,1.07,4.39,1.68,6.9-3.07-2.47-5.89-4.74-8.71-7-.45-.36-.48-.88-.61-1.37-3.88-14.82-7.76-29.64-11.63-44.46-.3-1.17-.81-2.23-1.6-3.64-.96,10.43-1.88,20.44-2.8,30.45-.48.14-.6-.24-.79-.45-2.85-3.13-5.68-6.28-8.55-9.4-.55-.59-.77-1.18-.75-1.99.14-5.86.22-11.73.36-17.59.21-8.56-.15-17.15.83-25.66.47-4.09-.81-7.68-1.84-11.41-1.08-3.89-2.33-7.73-3.71-11.53-.15-.42-.15-.93-.62-1.19v.04c-.2-1.5-.67-2.9-1.45-4.2h.02c.08-.33.06-.65-.3-.84l.02.02c.05-.34.05-.66-.3-.86v.02c.07-.38,0-.72-.28-1-.34-1.77-1.11-3.41-1.47-5.18-.72-3.47-1.59-6.9-2.41-10.35l.02.02c0-.58.05-1.17-.31-1.69v.02c.03-.5.09-1-.26-1.43,0,0,.02.02.02.02.01-.58.06-1.17-.3-1.69l.04-.03c-.71-4.82-1.37-9.66-2.15-14.47-.22-1.33-.12-2.41.79-3.46.81-.93,1.46-2.01,2.39-3.31.38,2.14.69,3.94,1.02,5.73,1.66,8.94,3.33,17.88,4.99,26.82.08.41.18.83.18,1.24-.04,2.52,1.54,3.88,3.74,5.07-.53-1.47-1.01-2.76-1.46-4.06-1.85-5.34-3.21-10.77-2.86-16.5.08-1.4.41-2.75.73-4.11.22-.94.68-1.02,1.5-.84,1.81.39,3.37,1.28,4.94,2.2,3.5,2.94,5.52,6.82,7.06,11.01,1.97,5.38,2.99,11.01,4.44,16.52.27,1.03.3,1.92-.2,2.91-.67,1.33-.99,2.79-.85,4.32.25,2.77,2.09,3.84,4.58,2.64.93-.45,1.77-1.03,2.54-1.71,1.43-1.25,2.84-2.53,4.26-3.8Z"/>
    <path class="cls-8" d="M759.65,446.53c1.79-2.7,3.6-5.38,5.34-8.11.49-.77.79-.77,1.44-.2,1.91,1.68,3.88,3.29,5.83,4.92.74,1.03,1.8,1.74,2.73,2.57,2.47,2.19,4.96,4.35,7.51,6.45,1.51,1.24,3.06.63,3.32-1.29.12-.9.39-1.8.14-2.75-1.03-3.86-1.21-7.79-.68-11.74,1.02-7.64,3.52-14.69,8.37-20.78.23-.29.49-.56.45-.98,1.22-.65,2.17-1.71,3.49-2.23,1.4-.55,2.71-.27,3.41.92.73,1.25,1.18,2.59,1.4,4.04.47,3.01.25,6.03.21,9.04-.01,1.21.26,2.49-.29,3.67-.7,1.88-.71,3.87-1.03,5.82-.82,4.94-1.86,9.82-2.97,14.7-.71,3.09-2,6.08-1.73,9.37.15,1.85.14,3.71.22,5.56.11,2.69.23,5.37.34,8.06-.11,2.14.01,4.28.21,6.41l.03,1.13c.13,5.21.26,10.42.4,15.62.14,5.4.28,10.79.43,16.19.01.44-.08.81-.42,1.12-2.97,2.74-5.93,5.49-8.99,8.33-.48-2.78-.48-5.46-.64-8.12-.32-5.29-.59-10.59-.58-15.9,0-.79.02-1.59.15-2.36.15-.92-.03-1.56-1.03-1.79-.96-.21-1.34.34-1.59,1.14-2.18,6.72-4.18,13.48-5.92,20.33-1.59,6.26-3.04,12.55-4.06,18.93-.34,2.15-.42,4.34-.6,6.52-.04.48-.14.89-.52,1.24-3.07,2.84-6.14,5.7-9,8.36.17-1.76.33-4.07.62-6.37,1.72-13.97,5.68-27.45,8.9-41.1,2.26-9.59,4.16-19.25,4.97-29.09.08-.93-.2-1.55-.89-2.17-4.65-4.16-9.49-8.07-14.43-11.86-2.79-2.42-5.58-4.84-8.38-7.26,1.11-2.22,2.81-4.08,3.86-6.34Z"/>
    <path class="cls-9" d="M802.32,430.05c.55-1.18.28-2.46.29-3.67.03-3.01.26-6.03-.21-9.04-.23-1.45-.67-2.8-1.4-4.04-.7-1.19-2.01-1.47-3.41-.92-1.32.52-2.27,1.58-3.49,2.23-.06-.97-.08-1.94-.18-2.9-.91-8.6-2.76-17-5.54-25.18-1.53-4.51-3.1-9.01-5.11-13.34-2.1-5.33-4.27-10.63-6.59-15.87,2.44-2.31,5.29-4.08,7.89-6.17.79-.63.83.22,1,.58,2.04,4.22,3.97,8.49,5.64,12.88,2.56,6.73,4,13.71,4.76,20.85.13,1.25.35,2.48.53,3.72.06.41.12.93.56,1.03.57.13.73-.47.95-.84.65-1.1.89-2.14.58-3.53-1.59-7.19-1.23-14.31,1.26-21.28.34-.97.82-1.88,1.54-2.63.94-.99,1.83-.98,2.74.05.98,1.11,1.42,2.5,1.86,3.87,1.21,3.79,1.55,7.71,1.76,11.67.67,12.65.57,25.3.39,37.96-.03,1.95-.18,3.91-.11,5.85.05,1.38-.38,2.44-1.39,3.31-.86.75-1.15,1.65-1.18,2.82-.45,18.24-.43,36.49-.51,54.73-.04,7.96-.09,15.91-.32,23.86,0,.17-.03.34-.08.93-1.23-2.68-2.12-5.12-3.42-7.32-2.43-4.09-2.91-8.54-2.98-13.13-.03-1.81-.18-3.62-.27-5.43,0-.38-.02-.75-.03-1.13-.07-2.14-.14-4.28-.22-6.42,0-.74-.03-1.48,0-2.22.28-5.67-.67-11.38.78-17.02,1.56-6.06,2.49-12.24,3.32-18.44.29-1.93.57-3.86.59-5.82Z"/>
    <path class="cls-12" d="M540.1,419.61c.81,3.45,1.68,6.88,2.41,10.35.37,1.77,1.13,3.41,1.47,5.18.03.35-.1.75.3,1v-.02c0,.32-.1.67.28.86l-.02-.02c0,.32-.09.67.3.85h-.02c.19,1.48.49,2.94,1.43,4.18v-.04c-.11,1.59.75,2.94,1.19,4.37,1.23,3.99,2.24,8.02,2.86,12.14.41,2.68-.12,5.37-.27,8.05-.16,2.77-.51,5.52-.76,8.28-.37,4.1-.74,8.2-1.08,12.3-.22,2.63-.48,5.26-.57,7.89-.05,1.44-.51,2.84-.21,4.67-1.52-1.49-2.4-2.99-3.46-4.35-1.03-1.32-1.96-2.7-3.03-3.98-.87-1.04-.66-2.21-.55-3.33.4-3.95.79-7.91,1.4-11.84.65-4.25,1.1-8.53,1.56-12.8.46-4.25.42-8.53.36-12.8-.07-5.24-.63-10.43-1.33-15.62-.64-4.72-1.46-9.4-2.28-14.09-.07-.4,0-.83.01-1.25Z"/>
    <path class="cls-5" d="M628.67,343.9c-5.81,8.7-11.5,17.48-17.48,26.06-2.2,3.17-2.45,6.49-1.96,9.95.87,6.02,3.06,11.66,5.61,17.15,5.76,12.39,11.57,24.76,17.4,37.12.54,1.14.44,1.6-.86,1.99-4.45,1.32-8.86,2.77-13.28,4.18-.26.08-.49.25-.74.38-.12.02-.23.04-.35.05-.06-.13-.1-.26-.18-.38-5.65-9.24-11.31-18.48-16.96-27.72-.42-.68-.96-1.18-1.8-1.04-.88.15-1.11.89-1.26,1.65-1.5,7.65-2.97,15.3-4.51,22.93-.53,2.63-.84,5.3-1.73,7.85-2.45-3.55-4.93-7.09-7.33-10.68-.59-.88-.88-.87-1.55-.09-1.5,1.77-3.11,3.45-4.67,5.16-1.44-1.04-2.65-2.34-3.97-3.5-.52-.46-.47-.9-.36-1.49,1.49-7.88,2.96-15.77,4.42-23.66.96-5.23,2.35-10.38,1.27-15.82-1.16-5.83-2.82-11.34-7.11-15.74-3.71-3.81-7.96-6.99-11.91-10.5-1.62-1.81-3.3-3.57-4.57-5.67.12-1.33.72-2.5,1.34-3.63,1.23-2.27,2.82-4.36,3.48-7.12,2.5,2.44,4.95,4.56,7.59,6.46,3.15,2.27,6.58,4.01,10.18,5.45,1.22.49,1.85.2,2.2-1.07.38-1.34.42-2.57-.19-4.01-1.86-4.34-3.92-8.64-4.72-13.35-.82-4.83.68-9.01,3.85-12.6,3.85-4.37,8.81-6.76,14.59-6.82,5.87-.07,10.5,3.04,11.8,9.83.91,4.77-.29,9.2-1.91,13.6-.38,1.04-.63,2.13-.94,3.2-.03.06-.06.11-.09.17l.18-.08c2.55-.53,4.84-1.22,6.47-3.69,2.8-4.26,5.98-8.27,9-12.38.19-.26.43-.47.65-.7,2.87,2.72,5.97,5.15,9.12,7.53.44.33.86.7,1.29,1.05Z"/>
  </g>
  <path class="cls-3" d="M709.22,179.03c.32.19.61.48.95.55,6.21,1.22,11.61,4.1,16.16,8.42,3.55,3.37,6.49,7.25,8.34,11.91,2.11,5.3,3.14,10.71,2.49,16.39-.8,7.05-3.39,13.34-8.06,18.71-3.96,4.55-8.71,7.95-14.43,10.02-6.35,2.3-12.77,2.64-19.3,1.06-6.16-1.49-11.42-4.53-15.95-9.01-3.26-3.22-5.72-6.93-7.53-11.06-1.45-3.31-2.2-6.84-2.47-10.49-.38-5.21.32-10.27,2.24-15.07,1.95-4.87,4.89-9.09,8.87-12.63,3.02-2.69,6.3-4.9,9.99-6.45,1.77-.74,3.7-1.1,5.55-1.67.52-.16,1-.45,1.5-.68,3.88,0,7.75,0,11.63,0Z"/>
  <path class="cls-3" d="M445.71,332.3c.45-.97.9-1.93,1.34-2.9,1.84-4.06,4.74-7.09,8.74-9.14,5.01-2.56,10.15-2.8,15.28-.62,5,2.12,8.49,5.77,10.4,10.91,1.23,3.31,1.38,6.69.63,10.01-.85,3.81-2.84,7.09-5.86,9.73-3.72,3.25-8.04,4.84-12.94,4.7-2.94-.08-5.75-.91-8.33-2.43-3.76-2.21-6.44-5.32-8.19-9.27-.36-.8-.72-1.6-1.09-2.41,0-2.87,0-5.74,0-8.6Z"/>
  <path class="cls-3" d="M963.44,598.15c0,.16-.01.32,0,.47.36,3.69-.72,7.18-1.61,10.67-.73,2.89-1.37,5.85-2.56,8.56-1.51,3.43-3.39,6.72-5.36,9.91-2.67,4.31-6.23,7.91-10.13,11.1-3.24,2.66-6.77,4.93-10.59,6.74-4.83,2.29-9.87,3.87-15.14,4.57-5.79.76-11.58.69-17.33-.51-4.05-.85-7.91-2.15-11.7-3.84-7.7-3.46-13.96-8.7-19.2-15.2-2.89-3.58-5.15-7.56-7.01-11.8-3.95-9.02-4.92-18.43-3.65-28.08.76-5.8,2.58-11.33,5.33-16.53,4.39-8.31,10.56-14.99,18.41-20.1,4.27-2.77,8.86-4.9,13.76-6.24,5.62-1.54,11.4-2.42,17.23-1.95,5.28.42,10.46,1.47,15.44,3.44,3.63,1.44,7.1,3.12,10.32,5.32,4.89,3.35,9.36,7.19,12.73,12.12,2.03,2.97,4.06,5.99,5.65,9.21,1.44,2.93,2.38,6.14,3.36,9.28.62,1.98.62,4.18,1.42,6.07.96,2.27.37,4.54.63,6.79Z"/>
  <path class="cls-3" d="M933.79,405.69c25.12.09,45.92,20.57,46.53,45.51.66,26.61-20.92,47.89-46.29,48.03-26.51.15-46.62-21-47.22-45.69-.64-26.28,21.11-48,46.98-47.86Z"/>
  <path class="cls-3" d="M849.7,332.36c.03-21.99,17.9-41.32,41.03-42.14,24.08-.86,43.59,18.44,44,41.55.42,23.66-18.01,42.69-41.47,43.44-22.92.73-43.73-18.09-43.56-42.85Z"/>
  <path class="cls-3" d="M769.43,247.43c.03-19.79,16.11-37.19,36.93-37.93,21.67-.77,39.23,16.59,39.6,37.4.38,21.3-16.21,38.42-37.33,39.09-20.63.66-39.35-16.29-39.2-38.56Z"/>
  <path class="cls-3" d="M634.09,226.68c-.25,11.47-3.7,18.8-10.41,24.64-6.41,5.58-13.84,8.06-22.26,7.22-16.08-1.61-27.15-15.48-26.84-29.87.4-18.46,15.98-30.47,31.58-29.44,16.99,1.13,28.29,15.69,27.93,27.45Z"/>
  <path class="cls-3" d="M521.16,292.87c-13.11.04-24.32-10.84-24.13-24.54.18-12.69,10.88-23.39,23.63-23.64,13.22-.26,24.93,10.72,24.54,24.85-.33,12.27-10.52,23.23-24.04,23.33Z"/>
  <text class="cls-2" transform="translate(47.43 539.72)"><tspan x="0" y="0">UWF</tspan></text>
  <rect class="cls-3" x="47.85" y="608.82" width="770.2" height="85.04" rx="42.52" ry="42.52"/>
  <text id="UNITED_WELFARE_FOUNDATION" data-name="UNITED WELFARE FOUNDATION" class="cls-4" transform="translate(66.63 664.92)"><tspan x="0" y="0">UNITED WELFARE FOUNDATION</tspan></text>
  <text id="Ratnagiri_Sindhudurg_Kokan_Committee" data-name="Ratnagiri Sindhudurg  Kokan Committee" class="cls-1" transform="translate(76.24 584.47)"><tspan x="0" y="0">MAHARASHTRA, INDIA</tspan></text>
</svg>